<?xml version="1.0" encoding="utf-8"?>
<!-- Generator: Adobe Illustrator 15.0.0, SVG Export Plug-In . SVG Version: 6.00 Build 0)  -->
<!DOCTYPE svg PUBLIC "-//W3C//DTD SVG 1.1//EN" "http://www.w3.org/Graphics/SVG/1.1/DTD/svg11.dtd">
<svg version="1.1" id="图层_1" xmlns="http://www.w3.org/2000/svg" xmlns:xlink="http://www.w3.org/1999/xlink" x="0px" y="0px"
	 width="139.624px" height="94.111px" viewBox="0 0 139.624 94.111" enable-background="new 0 0 139.624 94.111"
	 xml:space="preserve">
<g>
	<path fill="#231815" d="M85.269,14.231H73.437h-3.7v1.427c0.745,0.072,1.354,0.152,1.85,0.266c0.586,0.134,1.019,0.314,1.34,0.587
		c0.927,0.792,0.906,2.27,0.906,4.95v17.99c-0.004,3.662,0.328,8.845-4.858,8.776c-2.223-0.029-4.506-1.613-5.215-4.506h-1.786
		c0.755,4.849,3.338,8.138,9.599,8.138h0.015h0.015c5.318,0,10.063-2.441,10.055-10.747V27.115V21.46c0-2.68-0.019-4.098,0.908-4.89
		c0.594-0.505,1.084-0.756,2.705-0.914V14.231L85.269,14.231z"/>
	<path fill="#231815" d="M103.081,14.231H87.55v0.001v1.357v0.07c1.621,0.158,2.111,0.408,2.705,0.914
		c0.742,0.634,0.877,1.673,0.901,3.438c-0.002,0.536-0.006,1.133,0.006,1.799v21.518c-0.012,0.667-0.008,1.264-0.006,1.799
		c-0.024,1.766-0.159,2.804-0.901,3.438c-0.594,0.506-1.084,0.756-2.705,0.914v0.07v1.355l0,0h15.531l0,0h0.063h7.873l2.475-7.182
		h-1.821c-1.805,3.946-4.594,4.407-7.138,4.407c-2.081,0-3.465-0.117-4.446-0.752c-0.791-0.507-1.089-1.844-1.103-4.109V21.87
		v-0.408c0-2.68-0.02-4.159,0.907-4.949c0.593-0.506,1.568-0.696,3.188-0.854L103.081,14.231L103.081,14.231z"/>
	<g>
		<g>
			<defs>
				<path id="SVGID_1_" d="M34.319,6.591c0.002,0.003,0.004,0.005,0.007,0.008C34.323,6.596,34.321,6.594,34.319,6.591 M34.31,6.579
					L34.31,6.579L34.31,6.579 M34.26,6.518L34.26,6.518L34.26,6.518 M34.184,6.424L34.184,6.424
					C34.185,6.425,34.185,6.424,34.184,6.424 M34.168,6.404L34.168,6.404 M39.127,2c-1.64,0.041-3.272,0.461-4.775,1.153
					c-0.727,0.334-1.417,0.739-2.066,1.189c-0.141,0.096-0.282,0.189-0.417,0.29c-0.826,0.618-1.583,1.316-2.291,2.064
					c-0.931,0.981-1.763,2.057-2.506,3.19c-0.591,0.901-1.134,1.833-1.618,2.785c-1.908,3.737-3.126,7.894-3.757,11.965
					c-0.408,2.653-0.597,5.312-0.594,7.925c-0.003,2.614,0.186,5.272,0.594,7.924c0.63,4.071,1.849,8.23,3.757,11.966
					c0.221,0.434,0.457,0.861,0.698,1.287c1.018-1.863,1.848-3.818,2.523-5.829c-1.237-3.677-1.955-7.54-2.221-11.402
					c-0.089-1.309-0.125-2.627-0.126-3.947h0.005c0.001-1.32,0.032-2.639,0.122-3.946c0.324-4.717,1.313-9.435,3.122-13.81
					c0.704-1.7,1.535-3.345,2.505-4.918c0.227-0.369,0.438-0.746,0.681-1.107c0.492-0.73,1.024-1.448,1.588-2.148
					c0.645-0.798,1.332-1.57,2.067-2.29c0.783-0.766,1.618-1.473,2.5-2.104c0.071-0.051,0.138-0.106,0.208-0.156L39.127,2L39.127,2z
					"/>
			</defs>
			<clipPath id="SVGID_2_">
				<use xlink:href="#SVGID_1_"  overflow="visible"/>
			</clipPath>
			
				<linearGradient id="SVGID_3_" gradientUnits="userSpaceOnUse" x1="-105.1067" y1="119.0659" x2="-104.6726" y2="119.0659" gradientTransform="matrix(0 119.3964 -119.3964 0 14246.1387 12551.3652)">
				<stop  offset="0" style="stop-color:#CC261C"/>
				<stop  offset="0.29" style="stop-color:#C9251D"/>
				<stop  offset="0.505" style="stop-color:#C0241E"/>
				<stop  offset="0.6957" style="stop-color:#B1211F"/>
				<stop  offset="0.8713" style="stop-color:#9C1E20"/>
				<stop  offset="1" style="stop-color:#881C21"/>
			</linearGradient>
			<rect x="21.1" y="2" clip-path="url(#SVGID_2_)" fill="url(#SVGID_3_)" width="18.027" height="51.738"/>
		</g>
	</g>
	<g>
		<g>
			<defs>
				<path id="SVGID_4_" d="M29.577,2c-1.639,0.041-3.272,0.461-4.774,1.153c-0.727,0.335-1.418,0.739-2.067,1.188
					c-0.139,0.097-0.282,0.189-0.417,0.29c-2.771,2.074-4.852,4.978-6.414,8.039c-1.908,3.737-3.127,7.894-3.756,11.965
					c-0.41,2.653-0.597,5.312-0.594,7.925h-0.001c-0.002,2.614,0.185,5.272,0.595,7.924c0.629,4.071,1.849,8.229,3.756,11.965
					c1.443,2.826,3.335,5.512,5.799,7.541c0.792-0.848,1.524-1.746,2.198-2.672c-0.234-0.322-0.465-0.648-0.687-0.979
					c-3.938-5.85-5.828-12.854-6.311-19.833c-0.09-1.309-0.132-2.626-0.134-3.947c0.001-1.32,0.044-2.638,0.134-3.946
					c0.482-6.981,2.372-13.986,6.311-19.835c0.492-0.73,1.023-1.448,1.588-2.148c0.644-0.798,1.331-1.569,2.066-2.29
					c0.782-0.766,1.617-1.472,2.499-2.104c0.069-0.051,0.138-0.106,0.209-0.156V2L29.577,2z"/>
			</defs>
			<clipPath id="SVGID_5_">
				<use xlink:href="#SVGID_4_"  overflow="visible"/>
			</clipPath>
			
				<linearGradient id="SVGID_6_" gradientUnits="userSpaceOnUse" x1="-104.6501" y1="119.0151" x2="-104.2175" y2="119.0151" gradientTransform="matrix(0 133.8239 -133.8239 0 15947.6523 14006.7031)">
				<stop  offset="0" style="stop-color:#CC261C"/>
				<stop  offset="0.29" style="stop-color:#C9251D"/>
				<stop  offset="0.505" style="stop-color:#C0241E"/>
				<stop  offset="0.6957" style="stop-color:#B1211F"/>
				<stop  offset="0.8713" style="stop-color:#9C1E20"/>
				<stop  offset="1" style="stop-color:#881C21"/>
			</linearGradient>
			<rect x="11.55" y="2" clip-path="url(#SVGID_5_)" fill="url(#SVGID_6_)" width="18.027" height="57.99"/>
		</g>
	</g>
	<g>
		<g>
			<defs>
				<path id="SVGID_7_" d="M30.479,17.212c1.237,3.678,1.954,7.541,2.221,11.403c0.09,1.307,0.126,2.626,0.127,3.946h-0.006
					c-0.001,1.319-0.031,2.638-0.121,3.947c-0.325,4.716-1.314,9.435-3.123,13.808c-0.703,1.701-1.536,3.348-2.506,4.918
					c-0.227,0.369-0.438,0.746-0.681,1.107c-0.492,0.73-1.023,1.449-1.588,2.146c-0.644,0.799-1.332,1.57-2.067,2.289
					c-0.781,0.768-1.617,1.475-2.499,2.105c-0.07,0.051-0.139,0.104-0.209,0.154v0.084l0,0c1.639-0.041,3.272-0.463,4.774-1.154
					c0.727-0.334,1.417-0.738,2.067-1.189c0.139-0.096,0.281-0.188,0.417-0.287c0.825-0.619,1.583-1.316,2.291-2.064
					c0.929-0.982,1.762-2.057,2.506-3.191c0.59-0.898,1.133-1.832,1.619-2.781c1.907-3.738,3.127-7.896,3.756-11.967
					c0.409-2.652,0.596-5.311,0.594-7.924l0,0c0.002-2.613-0.185-5.272-0.594-7.925c-0.628-4.071-1.849-8.228-3.756-11.965
					c-0.223-0.434-0.457-0.863-0.699-1.289C31.985,13.246,31.155,15.202,30.479,17.212"/>
			</defs>
			<clipPath id="SVGID_8_">
				<use xlink:href="#SVGID_7_"  overflow="visible"/>
			</clipPath>
			
				<linearGradient id="SVGID_9_" gradientUnits="userSpaceOnUse" x1="-95.9456" y1="120.188" x2="-95.5129" y2="120.188" gradientTransform="matrix(0 -119.396 119.396 0 -14320.877 -11392.4688)">
				<stop  offset="0" style="stop-color:#CC261C"/>
				<stop  offset="0.29" style="stop-color:#C9251D"/>
				<stop  offset="0.505" style="stop-color:#C0241E"/>
				<stop  offset="0.6957" style="stop-color:#B1211F"/>
				<stop  offset="0.8713" style="stop-color:#9C1E20"/>
				<stop  offset="1" style="stop-color:#881C21"/>
			</linearGradient>
			<rect x="20.027" y="11.383" clip-path="url(#SVGID_8_)" fill="url(#SVGID_9_)" width="18.026" height="51.74"/>
		</g>
	</g>
	<g>
		<g>
			<defs>
				<path id="SVGID_10_" d="M35.253,7.801c0.236,0.324,0.467,0.651,0.688,0.979c3.938,5.849,5.829,12.854,6.311,19.835
					c0.09,1.308,0.133,2.625,0.134,3.946c-0.001,1.32-0.044,2.638-0.134,3.947c-0.482,6.98-2.372,13.986-6.312,19.833
					c-0.491,0.73-1.022,1.449-1.587,2.146c-0.644,0.799-1.332,1.57-2.066,2.289c-0.782,0.768-1.618,1.475-2.499,2.105
					c-0.07,0.051-0.139,0.104-0.209,0.154v0.084l0,0c1.639-0.041,3.271-0.463,4.774-1.154c0.728-0.334,1.417-0.738,2.067-1.189
					c0.14-0.098,0.282-0.188,0.417-0.289c2.771-2.072,4.852-4.979,6.415-8.039c1.909-3.737,3.127-7.894,3.756-11.965
					c0.409-2.652,0.597-5.311,0.594-7.924h0.001c0.003-2.613-0.185-5.272-0.595-7.925c-0.629-4.071-1.848-8.228-3.755-11.965
					c-1.444-2.827-3.336-5.512-5.799-7.541C36.661,5.978,35.927,6.876,35.253,7.801"/>
			</defs>
			<clipPath id="SVGID_11_">
				<use xlink:href="#SVGID_10_"  overflow="visible"/>
			</clipPath>
			
				<linearGradient id="SVGID_12_" gradientUnits="userSpaceOnUse" x1="-96.4763" y1="120.0137" x2="-96.0437" y2="120.0137" gradientTransform="matrix(0 -133.8239 133.8239 0 -16022.123 -12847.8125)">
				<stop  offset="0" style="stop-color:#CC261C"/>
				<stop  offset="0.29" style="stop-color:#C9251D"/>
				<stop  offset="0.505" style="stop-color:#C0241E"/>
				<stop  offset="0.6957" style="stop-color:#B1211F"/>
				<stop  offset="0.8713" style="stop-color:#9C1E20"/>
				<stop  offset="1" style="stop-color:#881C21"/>
			</linearGradient>
			<rect x="29.577" y="5.131" clip-path="url(#SVGID_11_)" fill="url(#SVGID_12_)" width="18.027" height="57.992"/>
		</g>
	</g>
	<g>
		<path fill="#881C21" d="M31.252,59.992c0.792-0.848,1.523-1.748,2.198-2.672c-0.236-0.322-0.467-0.648-0.688-0.979
			c-0.242-0.361-0.454-0.738-0.681-1.107c-0.743,1.137-1.576,2.209-2.505,3.191C30.103,58.98,30.661,59.504,31.252,59.992"/>
		<path fill="#881C21" d="M36.419,60.779c-0.649,0.449-1.34,0.855-2.067,1.189c1.502,0.691,3.136,1.113,4.773,1.154h0.001v-0.084
			C38.167,62.369,37.264,61.605,36.419,60.779"/>
		<path fill="#921D22" d="M28.676,63.059c0.258-0.027,0.516-0.07,0.771-0.117c-0.261-0.184-0.52-0.373-0.771-0.57
			c-0.629-0.494-1.231-1.027-1.806-1.592c-0.65,0.449-1.342,0.855-2.067,1.189c0.988,0.457,2.035,0.787,3.101,0.975
			C28.16,62.988,28.417,63.031,28.676,63.059 M29.577,63.121v-0.082c-0.043-0.031-0.085-0.064-0.13-0.098
			c-0.256,0.047-0.514,0.088-0.771,0.117C28.976,63.092,29.276,63.113,29.577,63.121L29.577,63.121z"/>
	</g>
	<g>
		<g>
			<defs>
				<path id="SVGID_13_" d="M39.127,2v0.083c2.528,1.763,4.667,4.176,6.362,6.697c3.938,5.849,5.828,12.854,6.311,19.835
					c0.09,1.308,0.133,2.625,0.134,3.946c-0.001,1.32-0.044,2.638-0.134,3.947c-0.482,6.98-2.372,13.986-6.311,19.833
					c-1.694,2.521-3.833,4.936-6.362,6.697v0.082h0.001c2.599-0.064,5.191-1.084,7.257-2.631c2.771-2.074,4.853-4.979,6.416-8.039
					c1.909-3.738,3.126-7.895,3.756-11.966c0.408-2.652,0.595-5.311,0.594-7.924c0.003-2.613-0.185-5.272-0.594-7.925
					c-0.629-4.071-1.848-8.228-3.756-11.965c-1.563-3.061-3.644-5.965-6.414-8.039C44.32,3.085,41.728,2.065,39.127,2L39.127,2z"/>
			</defs>
			<clipPath id="SVGID_14_">
				<use xlink:href="#SVGID_13_"  overflow="visible"/>
			</clipPath>
			
				<linearGradient id="SVGID_15_" gradientUnits="userSpaceOnUse" x1="-96.7014" y1="119.896" x2="-96.2673" y2="119.896" gradientTransform="matrix(0 -141.0471 141.0471 0 -16862.8086 -13576.2871)">
				<stop  offset="0" style="stop-color:#CC261C"/>
				<stop  offset="0.29" style="stop-color:#C9251D"/>
				<stop  offset="0.505" style="stop-color:#C0241E"/>
				<stop  offset="0.6957" style="stop-color:#B1211F"/>
				<stop  offset="0.8713" style="stop-color:#9C1E20"/>
				<stop  offset="1" style="stop-color:#881C21"/>
			</linearGradient>
			<rect x="39.127" y="2" clip-path="url(#SVGID_14_)" fill="url(#SVGID_15_)" width="18.027" height="61.121"/>
		</g>
	</g>
	<g>
		<g>
			<defs>
				<path id="SVGID_16_" d="M7.22,32.561c0.002-1.32,0.044-2.638,0.134-3.946c0.482-6.981,2.372-13.986,6.312-19.835
					c1.694-2.521,3.833-4.935,6.361-6.697V2h-0.001c-2.599,0.064-5.191,1.084-7.258,2.632C9.997,6.706,7.916,9.61,6.353,12.671
					c-1.908,3.737-3.126,7.894-3.756,11.965C2.188,27.289,2,29.948,2.003,32.561l0,0C2,35.175,2.188,37.833,2.598,40.485
					c0.628,4.071,1.848,8.229,3.756,11.966c1.563,3.061,3.643,5.965,6.414,8.039c2.067,1.547,4.658,2.564,7.259,2.631h0.001v-0.082
					c-2.528-1.764-4.667-4.178-6.362-6.697c-3.938-5.85-5.828-12.854-6.311-19.833C7.265,35.199,7.222,33.881,7.22,32.561"/>
			</defs>
			<clipPath id="SVGID_17_">
				<use xlink:href="#SVGID_16_"  overflow="visible"/>
			</clipPath>
			
				<linearGradient id="SVGID_18_" gradientUnits="userSpaceOnUse" x1="-104.4573" y1="118.9487" x2="-104.0232" y2="118.9487" gradientTransform="matrix(0 141.0471 -141.0471 0 16788.3398 14735.3008)">
				<stop  offset="0" style="stop-color:#CC261C"/>
				<stop  offset="0.29" style="stop-color:#C9251D"/>
				<stop  offset="0.505" style="stop-color:#C0241E"/>
				<stop  offset="0.6957" style="stop-color:#B1211F"/>
				<stop  offset="0.8713" style="stop-color:#9C1E20"/>
				<stop  offset="1" style="stop-color:#881C21"/>
			</linearGradient>
			<rect x="2" y="2" clip-path="url(#SVGID_17_)" fill="url(#SVGID_18_)" width="18.026" height="61.121"/>
		</g>
	</g>
	<path fill="#881C21" d="M27.902,5.131c-0.792,0.847-1.523,1.747-2.197,2.67c0.235,0.324,0.466,0.65,0.687,0.979
		c0.242,0.36,0.454,0.738,0.681,1.106c0.744-1.134,1.576-2.209,2.506-3.191C29.051,6.141,28.493,5.618,27.902,5.131"/>
	<path fill="#921D22" d="M22.735,4.342c0.65-0.449,1.342-0.854,2.067-1.188C23.3,2.462,21.666,2.041,20.028,2h-0.002v0.083
		C20.987,2.752,21.891,3.516,22.735,4.342"/>
	<path fill="#921D22" d="M34.352,3.154c-0.988-0.455-2.034-0.786-3.101-0.975c-0.256-0.045-0.515-0.088-0.772-0.116l0,0
		C30.179,2.03,29.878,2.008,29.579,2l0,0v0.083c0.043,0.031,0.085,0.064,0.129,0.096c0.261,0.185,0.519,0.375,0.771,0.573
		c0.629,0.494,1.231,1.027,1.807,1.591C32.935,3.892,33.625,3.489,34.352,3.154"/>
	<path fill="#231815" d="M128.983,14.262H113.43v1.359v0.07c1.625,0.159,2.115,0.408,2.708,0.915
		c0.744,0.635,0.88,1.674,0.902,3.443c-0.002,0.536-0.006,1.133,0.007,1.801v21.546c-0.013,0.667-0.009,1.265-0.007,1.802
		c-0.022,1.769-0.158,2.808-0.902,3.442c-0.593,0.506-1.083,0.758-2.708,0.914v0.07v1.359l0,0h15.553l0,0h0.063h7.884l2.694-7.193
		h-2.04c-1.808,3.952-4.601,4.414-7.146,4.414c-2.084,0-3.471-0.117-4.453-0.753c-0.793-0.508-1.09-1.848-1.104-4.116V21.91v-0.408
		c0-2.684-0.02-4.165,0.908-4.957c0.595-0.507,1.57-0.696,3.193-0.854V14.262z"/>
	<rect x="2.003" y="70.85" fill="#231815" width="137.281" height="0.305"/>
	<g>
		<path fill="#231815" d="M69.909,83.113h3.098v4.066h-3.098V83.113z M69.909,82.168v-3.057h-0.97v3.057h-4.022v7.168h0.968v-1.209
			h3.055v5.98h0.97v-5.98h3.098v1.209h0.968v-7.168H69.909z M63.807,82.219c0.188-0.432,0.356-0.875,0.504-1.328
			c0.147-0.455,0.289-0.932,0.423-1.432L63.83,79.08l-0.169,0.596c-0.714,2.658-1.987,4.887-3.825,6.689v0.049l0.839,0.629
			c0.339-0.328,0.852-0.934,1.541-1.816h0.032v8.885h0.968V83.525L63.807,82.219z M65.885,83.113h3.055v4.066h-3.055V83.113z"/>
	</g>
	<path fill="#231815" d="M84.092,88.615h3.872v0.623h-3.872V88.615z M92.826,89.238h-3.896v-0.623h3.896V89.238z M84.092,86.959
		h3.872v0.709h-3.872V86.959z M88.932,86.959h3.896v0.709h-3.896V86.959z M95.903,93.348v-0.945h-6.972v-0.668h5.492v-0.947h-5.492
		v-0.602h4.863v-4.174H83.122v4.174h4.841v0.602h-5.471v0.947h5.471v0.668h-6.939v0.945H95.903z M81.659,85.408h13.596v-0.943
		H81.659V85.408z M84.565,82.354h7.68v0.689h-7.68V82.354z M83.597,83.988h9.617v-4.303h-9.617V83.988z M84.565,80.633h7.68v0.773
		h-7.68V80.633z"/>
	<path fill="#231815" d="M117.033,90.629v-2.916h-0.969v1.969h-1.787v-2.396h-0.968v6.594h0.968v-3.248h2.756V90.629z
		 M108.814,87.713v2.916h2.435c-0.122,0.619-0.495,1.137-1.12,1.549c-0.626,0.416-1.321,0.666-2.089,0.754l0.631,0.945
		c0.367-0.049,0.79-0.193,1.267-0.434c0.475-0.24,0.921-0.555,1.337-0.939c0.413-0.387,0.706-0.814,0.878-1.287
		c0.17-0.473,0.269-1.063,0.295-1.77l0.047-2.162h-0.969c0,1.459-0.021,2.256-0.063,2.396h-1.679v-1.969H108.814L108.814,87.713z
		 M104.941,89.58v-2.633h1.808v2.133C105.97,89.32,105.365,89.488,104.941,89.58 M106.748,86.002h-1.808v-2.279h1.808V86.002z
		 M107.718,80.711h1.097v-0.947h-5.833v0.947h0.993v9.125l-1.122,0.248l0.58,0.93l3.315-0.93v3.836h0.97V80.711L107.718,80.711z
		 M116.688,86.02c0.136,0.365,0.219,0.656,0.25,0.871c0.404-0.145,0.714-0.24,0.929-0.283c-0.118-0.574-0.495-1.438-1.13-2.59
		c-0.113,0.012-0.268,0.053-0.464,0.125s-0.333,0.121-0.407,0.141c0.222,0.371,0.363,0.652,0.429,0.842
		c-0.55,0.096-1.216,0.186-2.002,0.266l-0.031-0.031c1.141-0.904,2.208-2.238,3.203-4.006c-0.361-0.203-0.667-0.359-0.92-0.469
		c-0.328,0.701-0.587,1.188-0.774,1.461l-1.969,0.244l-0.032-0.033c0.032-0.012,0.07-0.033,0.117-0.064
		c0.046-0.031,0.076-0.055,0.092-0.064c0.904-0.922,1.604-1.924,2.099-3.004c-0.483-0.242-0.773-0.379-0.872-0.412
		c-0.031,0.043-0.071,0.117-0.119,0.223c-0.593,1.182-1.419,2.291-2.479,3.33l0.549,1.043c0.387-0.123,1.021-0.227,1.896-0.313
		c-0.656,0.834-1.326,1.549-2.01,2.146l0.524,1.041C115.115,86.225,116.155,86.072,116.688,86.02 M111.687,79.41
		c-0.086-0.025-0.231-0.096-0.439-0.205c-0.207-0.109-0.368-0.178-0.486-0.203c-0.608,1.338-1.485,2.584-2.631,3.732
		c0.063,0.104,0.152,0.277,0.267,0.521c0.112,0.244,0.201,0.418,0.266,0.52c0.124-0.02,0.388-0.084,0.787-0.188
		c0.4-0.105,0.738-0.152,1.015-0.143c-0.646,0.822-1.378,1.596-2.195,2.316c0.246,0.549,0.427,0.898,0.54,1.057
		c0.575-0.156,1.616-0.35,3.122-0.582c0.043,0.08,0.115,0.328,0.219,0.742c0.112-0.02,0.422-0.127,0.927-0.313
		c-0.097-0.484-0.442-1.283-1.04-2.396c-0.316,0.07-0.61,0.164-0.88,0.283l0.331,0.563c0.064,0.107,0.091,0.184,0.08,0.227
		c-0.936,0.15-1.563,0.232-1.879,0.25l-0.032-0.031c1.141-0.926,2.175-2.219,3.106-3.881c0.01-0.043,0.047-0.111,0.111-0.205
		s0.093-0.172,0.081-0.23l-0.92-0.428c-0.141,0.402-0.429,0.928-0.864,1.572c-0.746,0.107-1.324,0.18-1.732,0.211l-0.033-0.031
		C110.259,81.867,111.021,80.814,111.687,79.41 M104.941,80.711h1.808v2.064h-1.808V80.711z"/>
	<path fill="#231815" d="M135.26,92.41v-7.178h-4.382v-0.947h8.406v0.947h-3.058v7.342c-0.059,0.404-0.184,0.729-0.375,0.969
		s-0.6,0.359-1.222,0.359h-1.782c-0.028-0.088-0.083-0.246-0.166-0.475c-0.084-0.227-0.139-0.402-0.166-0.527
		c0.43,0.037,0.926,0.057,1.484,0.057c0.474,0,0.754-0.012,0.839-0.033c0.087-0.021,0.179-0.076,0.274-0.166
		C135.21,92.67,135.26,92.551,135.26,92.41 M128.373,94.002h-0.967v-6.656c-0.184,0.188-0.84,0.668-1.969,1.436h-0.049
		c-0.074-0.092-0.217-0.225-0.424-0.402s-0.346-0.313-0.416-0.402c1.765-1.006,3.442-2.666,5.034-4.979l0.841,0.563
		c-0.297,0.533-0.979,1.426-2.052,2.68L128.373,94.002L128.373,94.002z M131.267,80.176h7.075v0.947h-7.075V80.176z M125.536,83.908
		l-0.74-0.645c1.597-1.113,2.975-2.574,4.131-4.381l0.791,0.611c-0.938,1.428-1.826,2.535-2.668,3.328
		c-0.842,0.795-1.316,1.189-1.424,1.189c-0.017,0-0.028-0.012-0.036-0.035C125.58,83.955,125.563,83.93,125.536,83.908"/>
	<g>
		<path fill="#231815" d="M135.998,14.18c0.403,0,0.791,0.101,1.16,0.302c0.371,0.201,0.662,0.491,0.874,0.867
			c0.212,0.377,0.317,0.771,0.317,1.182c0,0.409-0.104,0.799-0.313,1.171s-0.497,0.661-0.867,0.869
			c-0.372,0.208-0.763,0.312-1.173,0.312c-0.408,0-0.799-0.104-1.171-0.312s-0.661-0.497-0.868-0.869
			c-0.209-0.372-0.313-0.762-0.313-1.171c0-0.411,0.105-0.805,0.318-1.182c0.212-0.376,0.503-0.666,0.874-0.867
			C135.21,14.281,135.597,14.18,135.998,14.18z M136.002,14.641c-0.322,0-0.634,0.081-0.931,0.242
			c-0.296,0.162-0.529,0.394-0.701,0.697c-0.171,0.302-0.257,0.62-0.257,0.951c0,0.33,0.084,0.644,0.25,0.943
			c0.167,0.298,0.4,0.532,0.699,0.699c0.299,0.168,0.611,0.252,0.938,0.252c0.329,0,0.644-0.084,0.94-0.252
			c0.298-0.167,0.53-0.401,0.698-0.699c0.168-0.299,0.252-0.613,0.252-0.943c0-0.332-0.086-0.649-0.257-0.951
			c-0.17-0.303-0.405-0.536-0.702-0.697C136.637,14.721,136.324,14.641,136.002,14.641z M134.938,17.789v-2.495h0.506
			c0.477,0,0.741,0.002,0.799,0.006c0.167,0.015,0.298,0.048,0.392,0.1c0.094,0.052,0.171,0.132,0.232,0.239
			c0.063,0.107,0.095,0.227,0.095,0.357c0,0.18-0.06,0.334-0.177,0.462c-0.117,0.127-0.282,0.207-0.496,0.237
			c0.075,0.029,0.135,0.06,0.176,0.094c0.041,0.034,0.097,0.098,0.169,0.192c0.018,0.025,0.08,0.126,0.184,0.304l0.295,0.503h-0.626
			l-0.209-0.405c-0.142-0.271-0.257-0.443-0.35-0.514c-0.094-0.071-0.209-0.106-0.351-0.106h-0.133v1.025L134.938,17.789
			L134.938,17.789z M135.443,16.371h0.206c0.293,0,0.475-0.011,0.545-0.034c0.07-0.022,0.127-0.062,0.167-0.118
			c0.041-0.057,0.063-0.121,0.063-0.192c0-0.069-0.021-0.131-0.061-0.186c-0.04-0.055-0.097-0.093-0.171-0.117
			c-0.072-0.024-0.254-0.036-0.543-0.036h-0.206V16.371L135.443,16.371z"/>
	</g>
</g>
</svg>
