<?xml version="1.0" encoding="utf-8"?>
<!-- Generator: Adobe Illustrator 15.0.0, SVG Export Plug-In . SVG Version: 6.00 Build 0)  -->
<!DOCTYPE svg PUBLIC "-//W3C//DTD SVG 1.1//EN" "http://www.w3.org/Graphics/SVG/1.1/DTD/svg11.dtd">
<svg version="1.1" xmlns="http://www.w3.org/2000/svg" xmlns:xlink="http://www.w3.org/1999/xlink" x="0px" y="0px"
	 width="285.762px" height="72.342px" viewBox="0 0 285.762 72.342" enable-background="new 0 0 285.762 72.342"
	 xml:space="preserve">
<g id="图层_2_3_" display="none">
	
		<rect x="-27.619" y="-52.329" display="inline" fill="#1D277B" stroke="#000000" stroke-miterlimit="10" width="469" height="206"/>
</g>
<g id="图层_1">
	<g id="图层_2_2_">
	</g>
	<g id="图层_1_3_">
		<g id="图层_2_1_">
		</g>
		<g id="图层_1_2_">
			<g id="图层_2" display="none">
				<rect x="-36.857" y="-71.047" display="inline" fill="#1B2C76" width="370.238" height="160.714"/>
			</g>
			<g id="图层_1_1_">
				<g>
					<path fill="#FFFFFF" d="M94.551,24.99v3.078c-0.616,0-1.574,0-2.873,0c0,2.121,0,3.761,0,4.925h-3.283c0-1.164,0-2.804,0-4.925
						c-3.69,0-6.874,0-9.542,0v-2.36l10.26-14.364h2.565c0,4.037,0,8.585,0,13.646C92.977,24.99,93.935,24.99,94.551,24.99z
						 M88.395,24.99v-7.9l-5.541,7.9H88.395z"/>
					<path fill="#FFFFFF" d="M97.116,22.424c0.136-7.249,2.599-10.942,7.387-11.081c4.992,0,7.49,3.694,7.49,11.081
						c-0.069,7.115-2.531,10.738-7.39,10.876C99.612,33.3,97.116,29.675,97.116,22.424z M100.707,22.424
						c-0.069,5.609,1.229,8.311,3.896,8.105c2.602,0.138,3.863-2.564,3.796-8.105c0.067-5.607-1.229-8.311-3.896-8.105
						C102.041,14.457,100.774,17.159,100.707,22.424z"/>
					<path fill="#FFFFFF" d="M114.456,22.424c0.136-7.249,2.599-10.942,7.387-11.081c4.992,0,7.49,3.694,7.49,11.081
						c-0.069,7.115-2.531,10.738-7.39,10.876C116.952,33.3,114.456,29.675,114.456,22.424z M118.046,22.424
						c-0.069,5.609,1.229,8.311,3.896,8.105c2.602,0.138,3.863-2.564,3.799-8.105c0.064-5.607-1.231-8.311-3.898-8.105
						C119.38,14.457,118.114,17.159,118.046,22.424z"/>
					<path fill="#FFFFFF" d="M132,21.194h14.979v2.564H132V21.194z"/>
					<path fill="#FFFFFF" d="M161.139,21.912c2.396,0.89,3.658,2.703,3.796,5.438c-0.205,3.763-2.733,5.746-7.592,5.951
						c-4.925-0.138-7.49-2.188-7.695-6.156c0.067-2.529,1.334-4.273,3.796-5.232c-1.776-1.026-2.733-2.529-2.873-4.515
						c0.344-3.83,2.565-5.848,6.672-6.054c4.104,0.274,6.358,2.326,6.771,6.156C163.874,19.416,162.917,20.885,161.139,21.912z
						 M157.342,30.632c2.462-0.136,3.796-1.23,4.001-3.283c-0.069-2.599-1.438-3.933-4.104-4.001
						c-2.528,0.205-3.862,1.472-4.001,3.796C153.443,29.265,154.811,30.427,157.342,30.632z M157.24,14.319
						c-1.916,0.205-2.942,1.164-3.078,2.873c0.064,2.19,1.128,3.318,3.181,3.386c1.983-0.067,3.009-1.129,3.078-3.181
						C160.282,15.55,159.223,14.524,157.24,14.319z"/>
					<path fill="#FFFFFF" d="M174.271,11.343h2.565v21.649h-3.386c0-4.104,0-9.302,0-15.596c-1.303,0.959-3.113,1.916-5.438,2.873
						v-3.283C171.433,15.55,173.518,13.669,174.271,11.343z"/>
					<path fill="#FFFFFF" d="M194.689,21.912c2.396,0.89,3.658,2.703,3.796,5.438c-0.205,3.763-2.733,5.746-7.592,5.951
						c-4.925-0.138-7.49-2.188-7.694-6.156c0.066-2.529,1.336-4.273,3.798-5.232c-1.779-1.026-2.736-2.529-2.873-4.515
						c0.341-3.83,2.563-5.848,6.669-6.054c4.104,0.274,6.358,2.326,6.771,6.156C197.424,19.416,196.467,20.885,194.689,21.912z
						 M190.893,30.632c2.462-0.136,3.796-1.23,4.001-3.283c-0.066-2.599-1.437-3.933-4.104-4.001
						c-2.531,0.205-3.865,1.472-4.001,3.796C186.994,29.265,188.362,30.427,190.893,30.632z M190.791,14.319
						c-1.916,0.205-2.942,1.164-3.078,2.873c0.064,2.19,1.128,3.318,3.181,3.386c1.983-0.067,3.009-1.129,3.078-3.181
						C193.833,15.55,192.773,14.524,190.791,14.319z"/>
					<path fill="#FFFFFF" d="M201.05,21.194h14.979v2.564H201.05V21.194z"/>
					<path fill="#FFFFFF" d="M218.595,27.554l3.489-0.82c0.271,2.396,1.539,3.626,3.796,3.693c2.804,0.069,4.171-1.195,4.104-3.796
						c-0.205-2.052-1.571-3.111-4.104-3.181h-2.565v-2.976h1.744c2.602,0,3.966-1.093,4.104-3.283
						c-0.069-1.777-1.098-2.701-3.078-2.771c-1.985,0.139-3.184,1.267-3.591,3.386l-3.488-0.82c0.957-3.693,3.283-5.574,6.977-5.644
						c4.377,0.069,6.637,2.053,6.772,5.951c0,2.052-1.129,3.523-3.386,4.412c2.732,1.095,4.138,2.806,4.207,5.13
						c-0.274,4.104-2.771,6.259-7.49,6.464C221.843,33.231,219.347,31.317,218.595,27.554z"/>
					<path fill="#FFFFFF" d="M235.729,27.554l3.489-0.82c0.272,2.396,1.539,3.626,3.796,3.693c2.804,0.069,4.171-1.195,4.104-3.796
						c-0.205-2.052-1.574-3.111-4.104-3.181h-2.563v-2.976h1.741c2.602,0,3.969-1.093,4.104-3.283
						c-0.069-1.777-1.095-2.701-3.078-2.771c-1.985,0.139-3.181,1.267-3.591,3.386l-3.488-0.82c0.957-3.693,3.283-5.574,6.979-5.644
						c4.377,0.069,6.634,2.053,6.771,5.951c0,2.052-1.129,3.523-3.386,4.412c2.732,1.095,4.138,2.806,4.207,5.13
						c-0.274,4.104-2.771,6.259-7.49,6.464C238.978,33.231,236.481,31.317,235.729,27.554z"/>
					<path fill="#FFFFFF" d="M253.479,28.581l3.184-1.026c0.547,2.053,1.675,3.045,3.386,2.976c2.938-0.067,4.446-2.291,4.515-6.669
						c-1.023,1.574-2.601,2.36-4.72,2.36c-4.242-0.205-6.499-2.633-6.771-7.285c0.343-4.72,2.7-7.249,7.078-7.593
						c5.403-0.205,8.037,3.319,7.9,10.568c0.067,7.661-2.634,11.456-8.105,11.389C256.591,33.163,254.437,31.591,253.479,28.581z
						 M260.148,14.421c-2.325,0.069-3.521,1.539-3.591,4.412c0,2.873,1.196,4.345,3.591,4.412c2.873-0.067,4.346-1.437,4.412-4.104
						C264.628,15.927,263.158,14.354,260.148,14.421z"/>
					<path fill="#FFFFFF" d="M271.024,28.581l3.184-1.026c0.547,2.053,1.675,3.045,3.386,2.976c2.938-0.067,4.446-2.291,4.515-6.669
						c-1.023,1.574-2.601,2.36-4.72,2.36c-4.242-0.205-6.499-2.633-6.771-7.285c0.342-4.72,2.699-7.249,7.077-7.593
						c5.403-0.205,8.037,3.319,7.9,10.568c0.067,7.661-2.634,11.456-8.104,11.389C274.136,33.163,271.981,31.591,271.024,28.581z
						 M277.693,14.421c-2.323,0.069-3.521,1.539-3.591,4.412c0,2.873,1.196,4.345,3.591,4.412c2.873-0.067,4.346-1.437,4.412-4.104
						C282.172,15.927,280.702,14.354,277.693,14.421z"/>
				</g>
				<g>
					<path fill="#FFFFFF" d="M81.772,53.069c0,2.908-0.126,4.906-0.378,5.994c-0.272,1.328-0.847,2.604-1.717,3.828
						c-0.332-0.425-0.658-0.809-0.979-1.149c0.721-1.099,1.193-2.203,1.425-3.314c0.183-0.961,0.271-2.639,0.271-5.03v-6.664h14.58
						v13.705c0,1.479-0.71,2.229-2.129,2.248c-0.813,0.015-1.717,0-2.713-0.033c-0.046-0.344-0.137-0.807-0.274-1.391
						c1.11,0.067,1.966,0.104,2.562,0.104c0.813,0,1.219-0.386,1.219-1.15V47.969H81.772V53.069z M82.597,52.83h4.414v-1.733h-3.624
						v-1.169h3.624v-1.512h1.339v1.512h3.624v1.169H88.35v1.733h4.431v1.167H82.597V52.83z M84.005,55.422h7.35v4.638H85.31v1.101
						h-1.305V55.422z M90.05,58.892V56.59h-4.74v2.302H90.05z"/>
					<path fill="#FFFFFF" d="M96.404,53.208h17.069v1.511H96.404V53.208z"/>
					<path fill="#FFFFFF" d="M114.092,60.644h7.71v-2.938h-6.577V56.47h6.577v-2.336h1.442v2.336h6.474v1.236h-6.474v2.938h7.656
						v1.235H114.09L114.092,60.644L114.092,60.644z M125.426,49.241c1.763,1.488,3.366,2.941,4.808,4.361l-1.113,0.996
						c-0.372-0.396-0.77-0.808-1.188-1.229c-4.007,0.104-7.55,0.271-10.63,0.506c-0.332,0.035-0.79,0.126-1.374,0.274l-0.704-1.479
						c0.629-0.206,1.162-0.479,1.597-0.823c1.156-0.955,2.347-2.169,3.563-3.642h-5.881V46.97h16.021v1.236h-8.251
						c-1.319,1.466-2.75,2.896-4.284,4.294c2.681-0.114,5.595-0.218,8.74-0.31c-0.687-0.67-1.431-1.368-2.229-2.098L125.426,49.241z
						"/>
					<path fill="#FFFFFF" d="M134.527,53.069c0,2.908-0.126,4.906-0.378,5.994c-0.272,1.328-0.847,2.604-1.717,3.828
						c-0.332-0.425-0.658-0.809-0.979-1.149c0.721-1.099,1.193-2.203,1.425-3.314c0.183-0.961,0.271-2.639,0.271-5.03v-6.664h14.58
						v13.705c0,1.479-0.71,2.229-2.129,2.248c-0.813,0.015-1.717,0-2.713-0.033c-0.046-0.344-0.137-0.807-0.271-1.391
						c1.107,0.067,1.963,0.104,2.559,0.104c0.813,0,1.219-0.386,1.219-1.15V47.969h-11.866L134.527,53.069L134.527,53.069z
						 M135.352,52.83h4.414v-1.733h-3.624v-1.169h3.624v-1.512h1.339v1.512h3.624v1.169h-3.624v1.733h4.434v1.167h-10.187V52.83
						L135.352,52.83z M136.76,55.422h7.35v4.638h-6.044v1.101h-1.305L136.76,55.422L136.76,55.422z M142.805,58.892V56.59h-4.74
						v2.302H142.805z"/>
					<path fill="#FFFFFF" d="M151.563,47.146h12.244v15.592h-1.459v-1.219h-9.325v1.219h-1.46V47.146z M153.022,48.433v5.135h9.325
						v-5.135H153.022z M153.022,54.856v5.408h9.325v-5.408H153.022z"/>
					<path fill="#FFFFFF" d="M171.887,52.022c0-0.312,0.108-0.566,0.326-0.772c0.217-0.206,0.478-0.31,0.781-0.31
						c0.309,0,0.569,0.104,0.79,0.313c0.217,0.209,0.323,0.466,0.323,0.77c0,0.306-0.104,0.563-0.315,0.772
						c-0.211,0.211-0.48,0.317-0.81,0.317c-0.309,0-0.566-0.106-0.778-0.317C171.992,52.583,171.887,52.326,171.887,52.022z
						 M171.887,59.75c0-0.31,0.105-0.569,0.317-0.781s0.475-0.317,0.79-0.317c0.317,0,0.587,0.107,0.798,0.322
						c0.212,0.215,0.315,0.477,0.315,0.776c0,0.298-0.104,0.554-0.315,0.769c-0.211,0.215-0.48,0.322-0.81,0.322
						c-0.313,0-0.574-0.107-0.783-0.322S171.887,60.047,171.887,59.75z"/>
					<path fill="#FFFFFF" d="M201.635,52.022c0-0.312,0.108-0.566,0.326-0.772c0.217-0.206,0.478-0.31,0.781-0.31
						c0.309,0,0.569,0.104,0.79,0.313c0.217,0.209,0.323,0.466,0.323,0.77c0,0.306-0.104,0.563-0.315,0.772
						c-0.211,0.211-0.48,0.317-0.81,0.317c-0.309,0-0.566-0.106-0.778-0.317C201.74,52.583,201.635,52.326,201.635,52.022z
						 M201.635,59.75c0-0.31,0.104-0.569,0.317-0.781c0.212-0.212,0.475-0.317,0.79-0.317c0.317,0,0.587,0.107,0.798,0.322
						c0.212,0.215,0.315,0.477,0.315,0.776c0,0.298-0.104,0.554-0.315,0.769c-0.211,0.215-0.48,0.322-0.81,0.322
						c-0.313,0-0.577-0.107-0.786-0.322S201.635,60.047,201.635,59.75z"/>
					<path fill="#FFFFFF" d="M205.627,54.246c0-2.347,0.389-4.122,1.168-5.327c0.775-1.205,1.906-1.809,3.383-1.809
						c2.816,0,4.225,2.271,4.225,6.815c0,2.244-0.396,3.962-1.188,5.147s-1.905,1.779-3.335,1.779c-1.354,0-2.397-0.563-3.142-1.688
						C205.998,58.039,205.627,56.397,205.627,54.246z M207.344,54.168c0,3.532,0.896,5.298,2.688,5.298
						c1.763,0,2.645-1.794,2.645-5.384c0-3.715-0.864-5.572-2.593-5.572C208.257,48.51,207.344,50.397,207.344,54.168z"/>
					<path fill="#FFFFFF" d="M215.939,54.246c0-2.347,0.392-4.122,1.168-5.327c0.778-1.205,1.906-1.809,3.384-1.809
						c2.815,0,4.227,2.271,4.227,6.815c0,2.244-0.396,3.962-1.189,5.147s-1.902,1.779-3.335,1.779c-1.351,0-2.396-0.563-3.139-1.688
						S215.939,56.397,215.939,54.246z M217.656,54.168c0,3.532,0.896,5.298,2.688,5.298c1.763,0,2.646-1.794,2.646-5.384
						c0-3.715-0.862-5.572-2.594-5.572C218.569,48.51,217.656,50.397,217.656,54.168z"/>
					<path fill="#FFFFFF" d="M236.606,53.653c-0.051,0.938-0.309,1.664-0.771,2.173c-0.464,0.51-1.085,0.765-1.863,0.765
						c-0.676,0-1.491-0.332-2.447-0.996c-0.609-0.406-1.102-0.609-1.468-0.609c-0.853,0-1.296,0.539-1.331,1.615h-1.331
						c0.04-0.938,0.297-1.664,0.773-2.174c0.475-0.51,1.099-0.764,1.872-0.764c0.646,0,1.374,0.27,2.181,0.807
						c0.807,0.545,1.411,0.815,1.813,0.815c0.379,0,0.679-0.147,0.899-0.446c0.226-0.298,0.341-0.691,0.354-1.186H236.606z"/>
					<path fill="#FFFFFF" d="M260.158,52.022c0-0.312,0.105-0.566,0.323-0.772c0.22-0.206,0.479-0.31,0.781-0.31
						c0.309,0,0.572,0.104,0.79,0.313c0.217,0.209,0.326,0.466,0.326,0.77c0,0.306-0.106,0.563-0.318,0.772
						c-0.211,0.211-0.479,0.317-0.807,0.317c-0.312,0-0.569-0.106-0.781-0.317C260.264,52.583,260.158,52.326,260.158,52.022z
						 M260.158,59.75c0-0.31,0.104-0.569,0.314-0.781s0.478-0.317,0.79-0.317c0.32,0,0.587,0.107,0.798,0.322
						c0.212,0.215,0.318,0.477,0.318,0.776c0,0.298-0.106,0.554-0.318,0.769c-0.211,0.215-0.479,0.322-0.807,0.322
						c-0.314,0-0.577-0.107-0.786-0.322S260.158,60.047,260.158,59.75z"/>
					<path fill="#FFFFFF" d="M264.15,54.246c0-2.347,0.392-4.122,1.168-5.327c0.778-1.205,1.906-1.809,3.386-1.809
						c2.813,0,4.225,2.271,4.225,6.815c0,2.244-0.396,3.962-1.188,5.147c-0.794,1.186-1.903,1.779-3.336,1.779
						c-1.351,0-2.396-0.563-3.139-1.688S264.15,56.397,264.15,54.246z M265.868,54.168c0,3.532,0.896,5.298,2.688,5.298
						c1.763,0,2.646-1.794,2.646-5.384c0-3.715-0.864-5.572-2.596-5.572C266.781,48.51,265.868,50.397,265.868,54.168z"/>
					<path fill="#FFFFFF" d="M274.462,54.246c0-2.347,0.389-4.122,1.168-5.327c0.778-1.205,1.906-1.809,3.383-1.809
						c2.816,0,4.225,2.271,4.225,6.815c0,2.244-0.396,3.962-1.188,5.147s-1.905,1.779-3.335,1.779c-1.354,0-2.397-0.563-3.139-1.688
						C274.833,58.039,274.462,56.397,274.462,54.246z M276.18,54.168c0,3.532,0.896,5.298,2.688,5.298
						c1.763,0,2.645-1.794,2.645-5.384c0-3.715-0.864-5.572-2.593-5.572C277.093,48.51,276.18,50.397,276.18,54.168z"/>
				</g>
				<g>
					<path fill="#C22D28" d="M36.671,72.342C16.97,72.342,1,56.372,1,36.671S16.97,1,36.671,1s35.671,15.97,35.671,35.671
						C72.343,56.372,56.373,72.342,36.671,72.342L36.671,72.342z M25.917,35.294c2.497-2.519,4.673-4.081,0.21-9.6
						c-4.462-5.525-7.405-1.259-9.828,1.185c-2.796,2.821-0.096,13.28,10.266,23.593c10.363,10.307,20.821,12.932,23.611,10.109
						c2.422-2.443,6.657-5.426,1.113-9.859c-5.543-4.431-7.081-2.23-9.578,0.285c-1.744,1.766-6.188-1.887-10.027-5.704
						C27.843,41.483,24.172,37.056,25.917,35.294L25.917,35.294z M49.845,39.7c-0.457-2.9-1.858-5.929-4.266-8.344
						c-2.412-2.415-5.436-3.82-8.33-4.277c0,0-1.156-0.178-1.972,0.635c-0.835,0.835-0.868,2.276,0.01,3.157
						c0.521,0.524,1.256,0.631,1.256,0.631c1.43,0.268,3.582,0.724,5.875,3.021c2.29,2.296,2.743,4.455,3.011,5.889
						c0,0,0.114,0.735,0.631,1.252c0.877,0.881,2.319,0.846,3.153,0.012C50.023,40.862,49.845,39.7,49.845,39.7L49.845,39.7z
						 M51.279,25.645c-6.546-6.556-13.263-7.163-16.598-6.681c0,0-0.881,0.118-1.419,0.656c-0.842,0.846-0.896,2.276,0.007,3.175
						c0.799,0.803,2.021,0.599,2.021,0.599c3.857-0.588,8.625,1.209,12.831,5.418c4.196,4.209,5.986,8.989,5.405,12.86
						c0,0-0.2,1.228,0.599,2.029c0.896,0.897,2.326,0.85,3.168,0.008c0.539-0.547,0.653-1.428,0.653-1.428
						C58.427,38.937,57.821,32.205,51.279,25.645L51.279,25.645z"/>
				</g>
			</g>
			<g enable-background="new    ">
				<path fill="#FEFEFE" d="M245.621,60.841h-1.625V50.479c-0.393,0.374-0.906,0.747-1.541,1.12
					c-0.635,0.374-1.205,0.653-1.711,0.841v-1.572c0.908-0.428,1.703-0.945,2.385-1.554c0.68-0.608,1.162-1.198,1.445-1.771h1.047
					V60.841z"/>
				<path fill="#FEFEFE" d="M252.288,53.659c-0.675-0.247-1.175-0.599-1.499-1.057c-0.326-0.458-0.488-1.006-0.488-1.645
					c0-0.963,0.346-1.773,1.039-2.43c0.692-0.656,1.613-0.984,2.764-0.984c1.156,0,2.087,0.336,2.791,1.007
					c0.705,0.672,1.057,1.489,1.057,2.453c0,0.614-0.16,1.148-0.482,1.604c-0.322,0.454-0.812,0.805-1.469,1.052
					c0.814,0.266,1.433,0.692,1.857,1.283c0.424,0.59,0.637,1.295,0.637,2.113c0,1.133-0.4,2.084-1.201,2.854
					c-0.801,0.771-1.855,1.156-3.162,1.156s-2.361-0.387-3.162-1.16c-0.801-0.774-1.201-1.739-1.201-2.896
					c0-0.861,0.219-1.582,0.655-2.163S251.481,53.87,252.288,53.659z M251.44,57.02c0,0.464,0.109,0.913,0.329,1.347
					s0.546,0.769,0.979,1.007s0.9,0.356,1.4,0.356c0.777,0,1.418-0.25,1.924-0.75c0.506-0.499,0.76-1.135,0.76-1.905
					c0-0.783-0.261-1.431-0.781-1.942c-0.521-0.512-1.174-0.768-1.956-0.768c-0.765,0-1.399,0.253-1.901,0.759
					C251.691,55.629,251.44,56.261,251.44,57.02z M251.963,50.904c0,0.626,0.201,1.138,0.605,1.536
					c0.403,0.396,0.928,0.596,1.572,0.596c0.625,0,1.139-0.197,1.539-0.592s0.602-0.878,0.602-1.449
					c0-0.597-0.207-1.098-0.619-1.505c-0.412-0.406-0.926-0.609-1.541-0.609c-0.619,0-1.135,0.198-1.544,0.597
					C252.168,49.874,251.963,50.351,251.963,50.904z"/>
			</g>
		</g>
		<g enable-background="new    ">
			<path fill="#FEFEFE" d="M191.021,57.778l1.563-0.145c0.132,0.735,0.385,1.268,0.758,1.6c0.373,0.331,0.853,0.496,1.437,0.496
				c0.5,0,0.938-0.114,1.314-0.343c0.376-0.229,0.685-0.534,0.926-0.917s0.442-0.898,0.604-1.549
				c0.164-0.65,0.244-1.313,0.244-1.988c0-0.072-0.002-0.18-0.008-0.324c-0.326,0.518-0.77,0.938-1.333,1.26
				s-1.173,0.483-1.829,0.483c-1.096,0-2.023-0.397-2.783-1.192c-0.758-0.795-1.137-1.843-1.137-3.144
				c0-1.343,0.395-2.424,1.188-3.243c0.791-0.819,1.783-1.229,2.977-1.229c0.861,0,1.648,0.231,2.361,0.695
				c0.714,0.464,1.256,1.125,1.627,1.983c0.369,0.857,0.555,2.1,0.555,3.726c0,1.692-0.184,3.04-0.551,4.043
				c-0.367,1.002-0.914,1.766-1.64,2.289c-0.726,0.524-1.576,0.786-2.552,0.786c-1.035,0-1.882-0.287-2.539-0.862
				C191.547,59.629,191.153,58.82,191.021,57.778z M197.678,51.935c0-0.934-0.248-1.675-0.745-2.223s-1.095-0.822-1.793-0.822
				c-0.723,0-1.353,0.295-1.888,0.886c-0.536,0.59-0.805,1.354-0.805,2.294c0,0.844,0.255,1.528,0.764,2.056
				c0.509,0.526,1.137,0.79,1.883,0.79c0.754,0,1.372-0.264,1.857-0.79C197.436,53.598,197.678,52.867,197.678,51.935z"/>
		</g>
	</g>
</g>
</svg>
